# xmcd
#
# Track frame offsets: 
#        150
#        9615
#        20893
#        34408
#        49807
#        59746
#        71410
#        80658
#        94050
#        101217
#        115121
#        128321
#
# Disc length: 1866 seconds
#
# Revision: 0
# Processed by: cddbd v1.5.2PL0 Copyright (c) Steve Scherf et al.
# Submitted via: ExactAudioCopy v0.99pb4
#
DISCID=a507480c
DTITLE=Steve Ivey - Bluegrass Christmas: 12 Downhome Favorites
DYEAR=2007
DGENRE=Christmas
TTITLE0=Joy To The World
TTITLE1=Hark! The Herald Angels Sing
TTITLE2=The First Noël
TTITLE3=Blue Ridge Mountain Christmas
TTITLE4=Do You Hear What I Hear?
TTITLE5=Angels We Have Heard On High
TTITLE6=God Rest Ye Merry Gentlemen
TTITLE7=O Come, O Come, Emmanuel
TTITLE8=Deck The Halls
TTITLE9=What Child Is This?
TTITLE10=Jingle All The Way
TTITLE11=Joyful, Joyful, We Adore Thee
EXTD=
EXTT0=
EXTT1=
EXTT2=
EXTT3=
EXTT4=
EXTT5=
EXTT6=
EXTT7=
EXTT8=
EXTT9=
EXTT10=
EXTT11=
PLAYORDER=
